<svg width="48" height="48" viewBox="0 0 48 48" fill="none" xmlns="http://www.w3.org/2000/svg">
<path d="M40 8L37.4831 8.79733V29.1513C37.4831 31.6411 35.6254 33.704 33.228 34.0153C28 34.0153 12.0331 34.0597 12.0331 34.0597M37.483 23.6649C36 27.8305 33.4 27.6515 32 27.6515L13.5066 27.8305C10.8173 27.8305 7.99996 26.5677 7.99996 23.8644V15.9322L37.483 12.9576M29.6023 37.0254C29.6023 38.6695 30.9367 39.9999 32.5615 39.9999C34.1864 39.9999 35.5208 38.6587 35.5208 37.0254C35.5208 35.392 34.1864 34.0508 32.5615 34.0508C30.9367 34.0508 29.6023 35.3812 29.6023 37.0254ZM8.54739 37.0254C8.54739 38.6695 9.88173 39.9999 11.5066 39.9999C13.1315 39.9999 14.4658 38.6587 14.4658 37.0254C14.4658 35.392 13.1315 34.0508 11.5066 34.0508C9.88173 34.0508 8.54739 35.3812 8.54739 37.0254Z" stroke="white" stroke-width="4" stroke-linecap="round" stroke-linejoin="round"/>
</svg>
