<svg width="32" height="32" viewBox="0 0 32 32" fill="none" xmlns="http://www.w3.org/2000/svg">
<path d="M26.667 5.33301L24.989 5.86456V19.4338C24.989 21.0937 23.7506 22.469 22.1523 22.6765C18.667 22.6765 8.02242 22.7062 8.02242 22.7062M24.989 15.7763C24.0003 18.5534 22.267 18.434 21.3336 18.434L9.00473 18.5534C7.21189 18.5534 5.33363 17.7114 5.33363 15.9093V10.6212L24.989 8.6381M19.7352 24.6832C19.7352 25.7793 20.6248 26.6663 21.708 26.6663C22.7913 26.6663 23.6808 25.7721 23.6808 24.6832C23.6808 23.5944 22.7913 22.7002 21.708 22.7002C20.6248 22.7002 19.7352 23.5872 19.7352 24.6832ZM5.69859 24.6832C5.69859 25.7793 6.58815 26.6663 7.6714 26.6663C8.75465 26.6663 9.64421 25.7721 9.64421 24.6832C9.64421 23.5944 8.75465 22.7002 7.6714 22.7002C6.58815 22.7002 5.69859 23.5872 5.69859 24.6832Z" stroke="#BBBBBB" stroke-width="3" stroke-linecap="round" stroke-linejoin="round"/>
<path d="M4 4L28 28" stroke="#BBBBBB" stroke-width="3" stroke-linecap="round"/>
</svg>
